<svg width="30" height="30" viewBox="0 0 30 30" fill="none" xmlns="http://www.w3.org/2000/svg">
<path d="M3.47265 23.0891C3.47265 17.3249 0.486816 13.3666 0.486816 10.5891C0.486816 7.8116 2.08348 1.97743 14.861 1.97743C27.6385 1.97743 29.5135 9.82493 29.5135 12.8799C29.5143 27.1858 3.47265 33.2974 3.47265 23.0891Z" fill="#FCD5BA"/>
<path d="M13.0909 20.9341C12.9342 21.0908 12.7225 21.1783 12.5017 21.1783C12.2809 21.1783 12.0684 21.0908 11.9125 20.9341L6.91252 15.9341C6.58669 15.6083 6.58752 15.0808 6.91252 14.7558L8.09085 13.5775C8.41669 13.2516 8.94419 13.2516 9.26919 13.5775L12.5017 16.8091L20.7342 8.57746C21.06 8.25163 21.5875 8.25163 21.9125 8.57746L23.0908 9.75579C23.4167 10.0816 23.4167 10.6091 23.0908 10.9341L13.0909 20.9341Z" fill="#FF6633"/>
<path d="M8.78637 15.9339C8.46053 15.6081 8.46137 15.0806 8.78637 14.7556L9.61637 13.9256L9.26803 13.5772C8.9422 13.2514 8.4147 13.2514 8.0897 13.5772L6.91137 14.7556C6.58553 15.0814 6.58553 15.6089 6.91137 15.9339L11.9114 20.9339C12.068 21.0906 12.2797 21.1781 12.5005 21.1781C12.7214 21.1781 12.9339 21.0906 13.0897 20.9339L13.438 20.5856L8.78637 15.9339Z" fill="black" fill-opacity="0.1"/>
</svg>
